<?xml version="1.0" encoding="UTF-8"?><svg id="a" xmlns="http://www.w3.org/2000/svg" width="33.92" height="27" viewBox="0 0 33.92 27"><path d="m10.56,1.69c-3.4,0-6.1,1.4-6.1,1.4-.2.2-.4.4-.4.6v17.5c0,.4.3.7.7.7.1,0,.2,0,.3-.1,0,0,2.5-1.3,5.5-1.3s6.2,1.3,6.2,1.3c.3.1.7,0,.9-.4,0-.1.1-.2.1-.3V3.59c0-.3-.2-.5-.4-.6-.1,0-3.5-1.3-6.8-1.3Zm12.8,0c-1.4,0-2.7.2-3.8.5-.4.1-.6.4-.5.8.1.4.4.6.8.5h0c1.1-.2,2.3-.4,3.5-.4,2.6,0,4.6.9,5.1,1.1v16c-1-.4-2.7-1-5.1-1-1.4,0-2.7.2-3.8.5-.4.1-.6.4-.5.8s.4.6.8.5h.1c1.1-.3,2.3-.5,3.5-.5,3,0,5.5,1.3,5.5,1.3.3.2.7,0,.9-.3.1-.1.1-.2.1-.3V3.69c0-.3-.1-.5-.4-.6-.1,0-2.8-1.4-6.2-1.4Zm-12.8,1.4c2.7,0,5.2.9,5.8,1.1v16.2c-1-.4-3.2-1.1-5.8-1.1-2.4,0-4.1.6-5.1,1V4.29c.5-.3,2.4-1.2,5.1-1.2Zm-8.5,1.8c-.4,0-.7.3-.7.7h0v19c0,.4.3.7.7.7h.2c11.5-4,11.4-.6,14.7-.6s3.2-3.4,14.7.6c.4.1.7-.1.9-.4V5.69c0-.4-.3-.7-.7-.7s-.7.3-.7.7h0v18c-10.8-3.6-12.2-.4-14.2-.4s-3.4-3.2-14.2.4V5.59c0-.3-.3-.6-.7-.7h0Z" fill="#fff" stroke="#fff" stroke-miterlimit="10" stroke-width=".26"/></svg>