<?xml version="1.0" encoding="utf-8"?>
<!-- Generator: Adobe Illustrator 28.0.0, SVG Export Plug-In . SVG Version: 6.00 Build 0)  -->
<svg version="1.1" id="Layer_1" xmlns="http://www.w3.org/2000/svg" xmlns:xlink="http://www.w3.org/1999/xlink" x="0px" y="0px"
	 viewBox="0 0 172.7 27" style="enable-background:new 0 0 172.7 27;" xml:space="preserve">
<style type="text/css">
	.st0{fill:#FFFFFF;stroke:#FFFFFF;stroke-width:0.2601;stroke-miterlimit:10;}
	.st1{fill:#FFFFFF;}
</style>
<path class="st0" d="M10.3,1C6.9,1,4.2,2.4,4.2,2.4C4,2.6,3.8,2.8,3.8,3v17.5c0,0.4,0.3,0.7,0.7,0.7c0.1,0,0.2,0,0.3-0.1
	c0,0,2.5-1.3,5.5-1.3s6.2,1.3,6.2,1.3c0.3,0.1,0.7,0,0.9-0.4c0-0.1,0.1-0.2,0.1-0.3V2.9c0-0.3-0.2-0.5-0.4-0.6C17,2.3,13.6,1,10.3,1
	z M23.1,1c-1.4,0-2.7,0.2-3.8,0.5c-0.4,0.1-0.6,0.4-0.5,0.8c0.1,0.4,0.4,0.6,0.8,0.5c0,0,0,0,0,0c1.1-0.2,2.3-0.4,3.5-0.4
	c2.6,0,4.6,0.9,5.1,1.1v16c-1-0.4-2.7-1-5.1-1c-1.4,0-2.7,0.2-3.8,0.5c-0.4,0.1-0.6,0.4-0.5,0.8c0.1,0.4,0.4,0.6,0.8,0.5
	c0,0,0,0,0.1,0c1.1-0.3,2.3-0.5,3.5-0.5c3,0,5.5,1.3,5.5,1.3c0.3,0.2,0.7,0,0.9-0.3c0.1-0.1,0.1-0.2,0.1-0.3V3
	c0-0.3-0.1-0.5-0.4-0.6C29.2,2.4,26.5,1,23.1,1z M10.3,2.4c2.7,0,5.2,0.9,5.8,1.1v16.2c-1-0.4-3.2-1.1-5.8-1.1c-2.4,0-4.1,0.6-5.1,1
	v-16C5.7,3.3,7.6,2.4,10.3,2.4z M1.8,4.2c-0.4,0-0.7,0.3-0.7,0.7c0,0,0,0,0,0v19c0,0.4,0.3,0.7,0.7,0.7c0.1,0,0.2,0,0.2,0
	c11.5-4,11.4-0.6,14.7-0.6s3.2-3.4,14.7,0.6c0.4,0.1,0.7-0.1,0.9-0.4c0-0.1,0-0.1,0-0.2v-19c0-0.4-0.3-0.7-0.7-0.7
	c-0.4,0-0.7,0.3-0.7,0.7c0,0,0,0,0,0V23c-10.8-3.6-12.2-0.4-14.2-0.4S13.3,19.4,2.5,23V4.9C2.5,4.6,2.2,4.3,1.8,4.2
	C1.8,4.2,1.8,4.2,1.8,4.2z"/>
<g>
	<path class="st1" d="M38.4,21.2v-1.1l1.9-0.8c0.1,0,0.2-0.1,0.3-0.2c0.1-0.1,0.1-0.2,0.1-0.4V5.9c0-0.2,0-0.3-0.1-0.4
		s-0.2-0.1-0.3-0.2l-1.9-0.8V3.5h7.9c1.6,0,2.9,0.2,3.8,0.6c0.9,0.4,1.5,0.9,1.8,1.5c0.3,0.6,0.5,1.2,0.5,1.9c0,1.1-0.3,2.1-0.9,2.8
		s-1.5,1.2-2.6,1.5v0.1c0.9,0,1.7,0.2,2.4,0.6c0.7,0.4,1.2,0.8,1.6,1.5c0.4,0.6,0.6,1.3,0.6,2.2c0,1-0.2,1.9-0.6,2.5
		c-0.4,0.7-0.9,1.2-1.5,1.6c-0.6,0.4-1.4,0.6-2.2,0.8c-0.8,0.2-1.7,0.2-2.5,0.2H38.4z M44,5.5v5.7h1.2c1.4,0,2.3-0.2,2.9-0.7
		s0.8-1.1,0.8-1.9c0-1.1-0.3-1.9-0.8-2.3c-0.5-0.5-1.3-0.7-2.5-0.7H44z M44,13.1v6.2h2.5c1.1,0,2-0.2,2.5-0.7
		c0.5-0.5,0.8-1.2,0.8-2.2c0-1.2-0.3-2-0.9-2.5c-0.6-0.5-1.6-0.7-3-0.7H44z"/>
	<path class="st1" d="M62.6,21.6c-1.3,0-2.5-0.3-3.5-0.8c-1-0.6-1.8-1.4-2.3-2.4C56.3,17.2,56,16,56,14.5c0-1.4,0.3-2.6,0.8-3.7
		c0.5-1.1,1.3-1.9,2.3-2.5c1-0.6,2.2-0.9,3.6-0.9c1.5,0,2.7,0.3,3.7,1s1.7,1.5,2.2,2.6s0.7,2.3,0.7,3.5c0,1.4-0.3,2.6-0.8,3.7
		c-0.5,1.1-1.3,1.9-2.3,2.5C65.1,21.2,63.9,21.6,62.6,21.6z M62.7,19.8c0.6,0,1.1-0.2,1.5-0.5c0.4-0.3,0.7-0.7,0.9-1.2
		c0.2-0.5,0.4-1.1,0.5-1.7c0.1-0.6,0.1-1.2,0.1-1.8c0-1-0.1-1.9-0.3-2.7c-0.2-0.8-0.6-1.5-1-2.1c-0.5-0.5-1.1-0.8-1.9-0.8
		c-0.6,0-1.1,0.1-1.5,0.4c-0.4,0.3-0.7,0.7-0.9,1.2c-0.2,0.5-0.4,1-0.5,1.6c-0.1,0.6-0.1,1.2-0.1,1.8c0,0.7,0.1,1.3,0.2,2
		c0.1,0.7,0.3,1.3,0.5,1.8c0.2,0.6,0.6,1,1,1.3C61.6,19.6,62.1,19.8,62.7,19.8z"/>
	<path class="st1" d="M78.3,21.6c-1.3,0-2.5-0.3-3.5-0.8c-1-0.6-1.8-1.4-2.3-2.4c-0.5-1.1-0.8-2.3-0.8-3.8c0-1.4,0.3-2.6,0.8-3.7
		c0.5-1.1,1.3-1.9,2.3-2.5c1-0.6,2.2-0.9,3.6-0.9c1.5,0,2.7,0.3,3.7,1s1.7,1.5,2.2,2.6s0.7,2.3,0.7,3.5c0,1.4-0.3,2.6-0.8,3.7
		c-0.5,1.1-1.3,1.9-2.3,2.5C80.8,21.2,79.7,21.6,78.3,21.6z M78.4,19.8c0.6,0,1.1-0.2,1.5-0.5c0.4-0.3,0.7-0.7,0.9-1.2
		c0.2-0.5,0.4-1.1,0.5-1.7c0.1-0.6,0.1-1.2,0.1-1.8c0-1-0.1-1.9-0.3-2.7c-0.2-0.8-0.6-1.5-1-2.1c-0.5-0.5-1.1-0.8-1.9-0.8
		c-0.6,0-1.1,0.1-1.5,0.4c-0.4,0.3-0.7,0.7-0.9,1.2c-0.2,0.5-0.4,1-0.5,1.6c-0.1,0.6-0.1,1.2-0.1,1.8c0,0.7,0.1,1.3,0.2,2
		c0.1,0.7,0.3,1.3,0.5,1.8c0.2,0.6,0.6,1,1,1.3C77.3,19.6,77.8,19.8,78.4,19.8z"/>
	<path class="st1" d="M87,21.2v-1.1l1.4-0.6c0.1-0.1,0.2-0.1,0.3-0.2c0.1-0.1,0.1-0.2,0.1-0.4V4.8c0-0.2,0-0.3-0.1-0.4
		s-0.2-0.2-0.3-0.2l-1.6-0.8V2.2h5.2v12.2l4.7-4.9l-1.3-0.8v-1h5.7v1l-1.5,0.7c-0.2,0.1-0.3,0.1-0.4,0.2C99.2,9.8,99,9.9,98.9,10
		L96,12.8l4,6.3c0.1,0.1,0.2,0.2,0.4,0.3c0.2,0.1,0.3,0.2,0.4,0.2l1.2,0.5v1.1h-6v-1.1l0.6-0.6l-3-4.6l-1.5,0.6V19
		c0,0.2,0,0.3,0.1,0.4c0.1,0.1,0.2,0.1,0.3,0.2l1.2,0.6v1.1H87z"/>
	<path class="st1" d="M103.7,20.5v-5.1h1.7l0.5,2.4c0,0.1,0.1,0.3,0.2,0.4c0.1,0.1,0.2,0.2,0.4,0.3c0.2,0.1,0.5,0.3,0.9,0.5
		s0.7,0.3,1.2,0.5c0.4,0.1,0.8,0.2,1.2,0.2c1.1,0,2-0.2,2.7-0.7c0.7-0.5,1-1.1,1-2c0-0.7-0.2-1.3-0.6-1.6c-0.4-0.4-1-0.7-1.6-1
		c-0.7-0.3-1.3-0.5-2-0.7c-0.7-0.2-1.3-0.4-1.9-0.7c-1-0.4-1.7-1-2.3-1.7S104,9.5,104,8.4c0-1,0.3-2,0.9-2.8s1.4-1.4,2.3-1.8
		c1-0.4,2-0.6,3.1-0.6c0.7,0,1.3,0,2,0.1s1.3,0.2,1.9,0.3c0.6,0.1,1.1,0.2,1.6,0.4v4.9h-1.7l-0.5-2.3c0-0.1-0.1-0.2-0.2-0.3
		S113.2,6,113.1,6c-0.1-0.1-0.3-0.2-0.6-0.3c-0.3-0.1-0.6-0.2-0.9-0.3c-0.4-0.1-0.7-0.1-1.1-0.1c-1,0-1.8,0.2-2.4,0.7
		c-0.5,0.5-0.8,1-0.8,1.6c0,0.6,0.2,1.1,0.5,1.5s1,0.8,1.9,1.2c0.6,0.2,1.2,0.4,1.9,0.7c0.6,0.2,1.3,0.5,2,0.8
		c0.6,0.2,1.1,0.5,1.6,0.9s0.9,0.9,1.2,1.4c0.3,0.6,0.5,1.3,0.5,2.2c0,1-0.3,1.9-0.8,2.8c-0.5,0.9-1.3,1.5-2.3,2.1
		c-1.1,0.5-2.4,0.8-4,0.8c-0.6,0-1.2-0.1-1.9-0.2s-1.4-0.3-2.1-0.4C104.9,20.9,104.3,20.7,103.7,20.5z"/>
	<path class="st1" d="M128.4,7.7v1.9h-4.5v7.8c0,0.4,0.1,0.7,0.4,1c0.3,0.3,0.6,0.5,1,0.6c0.4,0.1,0.7,0.2,0.9,0.2
		c0.3,0,0.6,0,0.9-0.1s0.7-0.1,0.8-0.2h0.5v1.2c-0.2,0.1-0.5,0.3-0.9,0.5c-0.4,0.2-0.9,0.4-1.4,0.6c-0.5,0.2-1.1,0.3-1.6,0.3
		c-0.7,0-1.3-0.1-1.9-0.3c-0.6-0.2-1.1-0.5-1.4-0.9s-0.5-0.9-0.5-1.4V9.6h-2.1V8c0.4-0.1,0.8-0.1,1.2-0.2c0.3-0.1,0.6-0.2,0.8-0.5
		c0.2-0.2,0.3-0.6,0.3-1.2l0.1-1.9l2.9-0.5v4H128.4z"/>
	<path class="st1" d="M136.8,21.6c-1.3,0-2.5-0.3-3.5-0.8c-1-0.6-1.8-1.4-2.3-2.4c-0.6-1.1-0.8-2.3-0.8-3.8c0-1.4,0.3-2.6,0.8-3.7
		c0.5-1.1,1.3-1.9,2.3-2.5c1-0.6,2.2-0.9,3.6-0.9c1.5,0,2.7,0.3,3.7,1s1.7,1.5,2.2,2.6s0.7,2.3,0.7,3.5c0,1.4-0.3,2.6-0.8,3.7
		c-0.5,1.1-1.3,1.9-2.3,2.5C139.3,21.2,138.1,21.6,136.8,21.6z M136.9,19.8c0.6,0,1.1-0.2,1.5-0.5c0.4-0.3,0.7-0.7,0.9-1.2
		c0.2-0.5,0.4-1.1,0.5-1.7c0.1-0.6,0.1-1.2,0.1-1.8c0-1-0.1-1.9-0.3-2.7c-0.2-0.8-0.6-1.5-1-2.1c-0.5-0.5-1.1-0.8-1.9-0.8
		c-0.6,0-1.1,0.1-1.5,0.4c-0.4,0.3-0.7,0.7-0.9,1.2s-0.4,1-0.5,1.6c-0.1,0.6-0.1,1.2-0.1,1.8c0,0.7,0.1,1.3,0.2,2
		c0.1,0.7,0.3,1.3,0.5,1.8c0.2,0.6,0.6,1,1,1.3C135.8,19.6,136.3,19.8,136.9,19.8z"/>
	<path class="st1" d="M145.8,21.2v-1.1l1.4-0.6c0.1-0.1,0.2-0.1,0.3-0.2c0.1-0.1,0.1-0.2,0.1-0.4v-8.1c0-0.3,0-0.5-0.1-0.6
		c-0.1-0.1-0.2-0.2-0.3-0.3l-1.6-0.7V8.1l5.1-0.6v2.8h0.1c0.5-0.8,1-1.4,1.4-1.9c0.4-0.4,0.9-0.7,1.3-0.9s0.8-0.2,1.2-0.2
		c0.4,0,0.7,0,1.1,0.1s0.8,0.3,1.1,0.6v3.7h-2.3l-0.3-0.9c-0.1-0.2-0.2-0.3-0.4-0.5c-0.2-0.2-0.4-0.2-0.7-0.2
		c-0.3,0-0.6,0.1-0.9,0.2c-0.3,0.1-0.5,0.3-0.8,0.5c-0.2,0.2-0.5,0.5-0.7,0.8V19c0,0.3,0.1,0.5,0.4,0.6l1.9,0.6v1.1H145.8z"/>
	<path class="st1" d="M165,21.5c-1.2,0-2.3-0.3-3.3-0.8c-1-0.5-1.8-1.3-2.3-2.4s-0.9-2.3-0.9-3.8c0-1.4,0.3-2.6,0.8-3.7
		c0.6-1.1,1.3-1.9,2.3-2.6c1-0.6,2.1-0.9,3.4-0.9c1.2,0,2.2,0.2,3.1,0.7s1.5,1.1,2,1.9s0.7,1.7,0.7,2.7c0,0.1,0,0.3,0,0.5
		c0,0.2,0,0.5,0,0.7c0,0.2,0,0.4-0.1,0.5h-9l0-1.7h5.7c0-0.8-0.1-1.4-0.3-2c-0.2-0.5-0.4-1-0.8-1.2c-0.4-0.3-0.9-0.4-1.5-0.4
		c-0.5,0-1,0.1-1.3,0.3s-0.7,0.6-0.9,1c-0.3,0.4-0.4,0.9-0.6,1.5c-0.1,0.6-0.2,1.2-0.2,2c0,1,0.1,2,0.4,2.7c0.3,0.8,0.7,1.4,1.4,1.8
		c0.6,0.4,1.5,0.6,2.7,0.6c0.6,0,1.1-0.1,1.6-0.2c0.5-0.1,0.9-0.3,1.3-0.5s0.7-0.4,1-0.6h0.5v1.6c-0.6,0.5-1.5,1-2.5,1.4
		C167.2,21.3,166.1,21.5,165,21.5z"/>
</g>
</svg>
